<?xml version="1.0" encoding="UTF-8" standalone="no"?>
<!-- Created with Inkscape (http://www.inkscape.org/) -->

<svg
   version="1.1"
   id="svg2"
   width="72"
   height="186"
   viewBox="0 0 72 186"
   sodipodi:docname="f.svg"
   inkscape:version="1.2.2 (b0a8486541, 2022-12-01)"
   xml:space="preserve"
   xmlns:inkscape="http://www.inkscape.org/namespaces/inkscape"
   xmlns:sodipodi="http://sodipodi.sourceforge.net/DTD/sodipodi-0.dtd"
   xmlns:xlink="http://www.w3.org/1999/xlink"
   xmlns="http://www.w3.org/2000/svg"
   xmlns:svg="http://www.w3.org/2000/svg"><defs
     id="defs6" /><sodipodi:namedview
     id="namedview4"
     pagecolor="#ffffff"
     bordercolor="#666666"
     borderopacity="1.0"
     inkscape:showpageshadow="2"
     inkscape:pageopacity="0.0"
     inkscape:pagecheckerboard="0"
     inkscape:deskcolor="#d1d1d1"
     showgrid="false"
     inkscape:zoom="5.6568542"
     inkscape:cx="1.767767"
     inkscape:cy="99.348504"
     inkscape:window-width="2550"
     inkscape:window-height="1357"
     inkscape:window-x="0"
     inkscape:window-y="37"
     inkscape:window-maximized="0"
     inkscape:current-layer="g8" /><g
     inkscape:groupmode="layer"
     inkscape:label="Image"
     id="g8"><g
       id="g3406"
       transform="translate(-73.44064)"><g
         id="g2004"
         transform="translate(73.691994,9.6144933)"><path
           style="fill:none;stroke:#000000;stroke-width:1px;stroke-linecap:butt;stroke-linejoin:miter;stroke-opacity:1"
           d="M 27.694233,27.161312 36.425625,3.6186974 45.850551,27.546754"
           id="path4042" /><path
           style="fill:none;stroke:#000000;stroke-width:1px;stroke-linecap:butt;stroke-linejoin:miter;stroke-opacity:1"
           d="m 33.095094,13.194237 h 7.332089"
           id="path4044" /><path
           style="fill:none;stroke:#000000;stroke-width:1px;stroke-linecap:butt;stroke-linejoin:miter;stroke-opacity:1"
           d="M 31.623997,16.815743 H 41.654413"
           id="path4046" /><path
           style="fill:none;stroke:#000000;stroke-width:1px;stroke-linecap:butt;stroke-linejoin:miter;stroke-opacity:1"
           d="M 30.165352,20.531527 H 43.544987"
           id="path4048" /><path
           style="fill:none;stroke:#000000;stroke-width:1px;stroke-linecap:butt;stroke-linejoin:miter;stroke-opacity:1"
           d="M 29.197828,24.404916 H 44.418167"
           id="path4050" /></g><path
         id="path1166"
         style="fill:#fafafa;fill-opacity:1;stroke:#000000;stroke-width:1px;stroke-linecap:butt;stroke-linejoin:miter;stroke-opacity:1"
         d="m 110.18164,32.820312 c -9.26808,-0.116271 -13.835293,10.564686 -17.345702,17.404297 -8.559142,23.382608 -6.307368,49.561458 -5.074219,73.925781 1.077679,11.40676 3.889806,20.68049 4.890625,31.69531 1.190649,11.88662 4.743611,11.59423 14.339846,11.63868 h 3.13476 0.11914 l 2.83258,0.0885 c 4.79812,-0.0222 8.7184,0.7292 10.32201,-1.37853 2.02292,-2.65886 2.39558,-3.93316 4.01783,-10.26015 1.00082,-11.01482 4.11514,-20.37702 5.19282,-31.78378 1.23315,-24.364323 3.48492,-50.543173 -5.07422,-73.925781 -3.51041,-6.839611 -8.07762,-17.520568 -17.3457,-17.404297 -0.003,4.2e-5 -0.006,-4.4e-5 -0.01,0 z"
         sodipodi:nodetypes="ccccccccscccscc" /><path
         id="rect2877"
         style="fill:#ffffff;fill-opacity:1;stroke:#000000;stop-color:#000000"
         d="m 127.46487,155.59754 -1.94226,12.5123 H 95.210115 l -2.645738,-12.7621"
         sodipodi:nodetypes="cccc" /><g
         id="g5182"
         transform="matrix(1.0458204,0,0,1.0458204,246.93872,64.440216)"><circle
           style="opacity:1;fill:#000000;fill-opacity:1;stroke:none;stroke-width:3;stroke-dasharray:none;stroke-opacity:1;stop-color:#000000"
           id="circle5176"
           cx="-130.59041"
           cy="40.396343"
           r="2.3812013" /><path
           style="fill:none;stroke:#000000;stroke-width:2;stroke-linecap:butt;stroke-linejoin:miter;stroke-dasharray:none;stroke-opacity:1"
           d="m -134.47258,36.880038 h 7.76433"
           id="path5178" /><use
           x="0"
           y="0"
           xlink:href="#path5167"
           id="use5180"
           transform="translate(0,7.0326137)" /></g><g
         id="g5192"
         transform="matrix(0.71840263,0,0,0.71840263,204.07972,118.75946)"><circle
           style="opacity:1;fill:#000000;fill-opacity:1;stroke:none;stroke-width:3;stroke-dasharray:none;stroke-opacity:1;stop-color:#000000"
           id="circle5186"
           cx="-130.59041"
           cy="40.396343"
           r="2.3812013" /><path
           style="fill:none;stroke:#000000;stroke-width:2;stroke-linecap:butt;stroke-linejoin:miter;stroke-dasharray:none;stroke-opacity:1"
           d="m -134.47258,36.880038 h 7.76433"
           id="path5188" /><use
           x="0"
           y="0"
           xlink:href="#path5167"
           id="use5190"
           transform="translate(0,7.0326137)" /></g><g
         id="g6261"
         transform="translate(130.5088,-101.11008)"><rect
           style="font-variation-settings:normal;fill:#000000;fill-opacity:1;stroke:none;stroke-width:1;stroke-linecap:butt;stroke-linejoin:miter;stroke-miterlimit:4;stroke-dasharray:none;stroke-dashoffset:0;stroke-opacity:1;stop-color:#000000"
           id="rect5937"
           width="3.4799879"
           height="3.5905488"
           x="-22.156637"
           y="219.49895" /><rect
           style="font-variation-settings:normal;fill:#747474;fill-opacity:1;stroke:none;stroke-width:0.811301;stroke-linecap:butt;stroke-linejoin:miter;stroke-miterlimit:4;stroke-dasharray:none;stroke-dashoffset:0;stroke-opacity:1;stop-color:#000000"
           id="rect6199"
           width="10.278317"
           height="2.1251938"
           x="-25.555799"
           y="223.34904" /></g><path
         style="fill:none;stroke:#000000;stroke-width:4.0648;stroke-linecap:butt;stroke-linejoin:miter;stroke-dasharray:none;stroke-opacity:1"
         d="M 110.05738,39.315174 V 8.8692262"
         id="path4038" /><path
         style="fill:none;stroke:#555555;stroke-width:3;stroke-linecap:butt;stroke-linejoin:miter;stroke-dasharray:none;stroke-opacity:1"
         d="m 106.05429,36.994149 h 8.02954"
         id="path4377" /><g
         id="g5663"
         transform="matrix(0.99419963,0,0,1.1468924,3.5390105,-7.4840369)"><path
           style="fill:none;stroke:#5e5e5e;stroke-width:2;stroke-linecap:butt;stroke-linejoin:miter;stroke-dasharray:none;stroke-opacity:1"
           d="m 102.95603,72.455517 h 8.17839"
           id="path5618" /><path
           style="font-variation-settings:normal;opacity:1;vector-effect:none;fill:none;fill-opacity:1;stroke:#5e5e5e;stroke-width:2;stroke-linecap:butt;stroke-linejoin:miter;stroke-miterlimit:4;stroke-dasharray:none;stroke-dashoffset:0;stroke-opacity:1;-inkscape-stroke:none;stop-color:#000000;stop-opacity:1"
           d="m 102.08453,78.522333 h 10.19364"
           id="path5620" /><path
           style="font-variation-settings:normal;opacity:1;vector-effect:none;fill:none;fill-opacity:1;stroke:#5e5e5e;stroke-width:2;stroke-linecap:butt;stroke-linejoin:miter;stroke-miterlimit:4;stroke-dasharray:none;stroke-dashoffset:0;stroke-opacity:1;-inkscape-stroke:none;stop-color:#000000;stop-opacity:1"
           d="m 102.24298,84.780578 h 9.83101"
           id="path5622" /><g
           id="g5655"><path
             style="fill:none;stroke:#000000;stroke-width:1px;stroke-linecap:butt;stroke-linejoin:miter;stroke-opacity:1"
             d="m 106.84038,65.02767 c 3.06797,2.446028 5.41762,6.418645 5.20942,10.393922 0.11002,5.381386 0.31058,8.855645 -1.09255,12.743901 -0.61993,1.50178 -3.01589,1.256887 -3.88386,1.331035"
             id="path5614"
             sodipodi:nodetypes="cccc" /><use
             x="0"
             y="0"
             xlink:href="#path5614"
             id="use5616"
             transform="matrix(-1,0,0,1,214.21347,0)" /></g></g><path
         style="fill:none;stroke:#000000;stroke-width:1.79765;stroke-linecap:butt;stroke-linejoin:miter;stroke-dasharray:none;stroke-opacity:1"
         d="M 100.5672,37.611179 95.271943,32.315921"
         id="use4375" /><g
         id="g5174"
         transform="matrix(0.90779487,0,0,0.90779487,228.97249,15.824468)"><circle
           style="opacity:1;fill:#000000;fill-opacity:1;stroke:none;stroke-width:3;stroke-dasharray:none;stroke-opacity:1;stop-color:#000000"
           id="path5165"
           cx="-130.59041"
           cy="40.396343"
           r="2.3812013" /><path
           style="fill:none;stroke:#000000;stroke-width:2;stroke-linecap:butt;stroke-linejoin:miter;stroke-dasharray:none;stroke-opacity:1"
           d="m -134.47258,36.880038 h 7.76433"
           id="path5167" /><use
           x="0"
           y="0"
           xlink:href="#path5167"
           id="use5169"
           transform="translate(0,7.0326137)" /></g><path
         style="fill:none;stroke:#000000;stroke-width:1px;stroke-linecap:butt;stroke-linejoin:miter;stroke-opacity:1"
         d="m 123.32555,42.696271 c 1.28482,3.842528 2.67454,7.656981 3.28779,11.67925 1.19727,5.222656 1.36734,10.607714 1.96596,15.91948 0.90321,8.616024 0.85684,17.293088 1.38791,25.935279 0.31256,7.95772 -0.48183,16.60184 -0.23763,24.56398 0.22186,7.17429 -0.70956,14.00911 -0.63126,20.8057 -0.0865,1.12088 -0.17303,2.24175 -0.25955,3.36263"
         id="path2040"
         sodipodi:nodetypes="ccccccc" /><path
         style="fill:none;stroke:#000000;stroke-width:1px;stroke-linecap:butt;stroke-linejoin:miter;stroke-opacity:1"
         d="m 96.473627,43.436836 c -1.28482,3.842528 -2.67454,7.656981 -3.28779,11.67925 -1.19727,5.222656 -1.36734,10.607714 -1.96596,15.91948 -0.90321,8.616024 -0.85684,17.293088 -1.38791,25.935279 -0.31256,7.957725 0.522121,17.145045 0.277921,25.107185 -0.22186,7.17429 0.733903,12.73531 1.216593,19.88598 0.0865,1.12088 -0.452594,2.61827 -0.366074,3.73915"
         id="path2042"
         sodipodi:nodetypes="ccccccc" /><g
         id="g2142"><rect
           style="fill:#000000;fill-opacity:1;stroke:none;stroke-width:0.958079;stroke-dasharray:none;stroke-opacity:1;stop-color:#000000"
           id="use4324"
           width="2.0797966"
           height="5.2036433"
           x="87.379494"
           y="118.65601" /><use
           x="0"
           y="0"
           xlink:href="#use4324"
           id="use2111"
           transform="translate(-0.35070494,-8.6093834)" /><use
           x="0"
           y="0"
           xlink:href="#use2111"
           id="use2113"
           transform="translate(-0.3874543,-19.357265)" /><use
           x="0"
           y="0"
           xlink:href="#use2113"
           id="use2115"
           transform="translate(-0.03288668,9.5309766)" /><use
           x="0"
           y="0"
           xlink:href="#use2115"
           id="use2117"
           transform="translate(0.20595176,-17.894605)" /><path
           id="use2119"
           style="stroke-width:0.958079;stop-color:#000000"
           d="m 90.84235,57.006094 0.92971,0.127544 v 5.203643 h -2.07979 z"
           sodipodi:nodetypes="ccccc" /><use
           x="0"
           y="0"
           xlink:href="#use2115"
           id="use2130"
           transform="translate(1.8137522,-34.643215)" /><use
           x="0"
           y="0"
           xlink:href="#use2115"
           id="use2132"
           transform="translate(0.32869417,-26.196755)" /></g><use
         x="0"
         y="0"
         xlink:href="#g2142"
         id="use2144"
         transform="matrix(-1,0,0,1,220.31564,0)" /><path
         style="fill:none;stroke:#000000;stroke-width:1px;stroke-linecap:butt;stroke-linejoin:miter;stroke-opacity:1"
         d="M 90.012398,100.23941 H 129.92641"
         id="path2146" /><path
         style="fill:none;stroke:#000000;stroke-width:1px;stroke-linecap:butt;stroke-linejoin:miter;stroke-opacity:1"
         d="m 91.62158,65.526314 h 36.57443"
         id="path2148" /><g
         id="g2191"><g
           id="use5588"
           transform="matrix(0.20898532,0,0,0.23911849,102.26215,81.773434)"><path
             id="path3278"
             style="opacity:1;fill:#989898;stroke-width:0.281042;stroke-dasharray:0.281042, 0.843127;stop-color:#000000"
             d="m 96.047775,92.869062 30.075815,1.224901 v 11.710427 l -30.075815,1.44764 z"
             sodipodi:nodetypes="ccccc" /><path
             id="path3280"
             style="opacity:1;stroke-width:0.3;stroke-dasharray:0.3, 0.9;stop-color:#000000"
             d="m 99.27272,95.704502 39.33318,1.365531 v 5.914777 l -39.33318,0.8901 -1.76343,-4.081307 z"
             sodipodi:nodetypes="cccccc" /><path
             id="path3282"
             style="opacity:1;stroke-width:0.3;stroke-dasharray:0.3, 0.9;stop-color:#000000"
             d="m 130.6711,96.8726 c 3.35943,-0.35114 6.71887,-0.70228 10.0783,-1.05342 0,2.764873 0,5.52975 0,8.29462 -3.35943,-0.37429 -6.71887,-0.74859 -10.0783,-1.12288 0,-2.03944 0,-4.07888 0,-6.11832 z"
             sodipodi:nodetypes="ccccc" /><rect
             style="opacity:1;fill:#0f0f0f;fill-opacity:1;stroke:none;stroke-width:0.3;stroke-dasharray:0.3, 0.9;stroke-dashoffset:0;stroke-opacity:1;stop-color:#000000"
             id="rect3284"
             width="7.5395951"
             height="2.7532237"
             x="99.071823"
             y="91.660179" /><rect
             style="fill:#0f0f0f;fill-opacity:1;stroke:none;stroke-width:0.3;stroke-dasharray:0.3, 0.9;stroke-dashoffset:0;stroke-opacity:1;stop-color:#000000"
             id="rect3286"
             width="7.5395951"
             height="2.7532237"
             x="115.5709"
             y="91.660179" /><rect
             style="fill:#0f0f0f;fill-opacity:1;stroke:none;stroke-width:0.3;stroke-dasharray:0.3, 0.9;stroke-dashoffset:0;stroke-opacity:1;stop-color:#000000"
             id="rect3288"
             width="7.5395951"
             height="2.7532237"
             x="99.071823"
             y="106.08112" /><rect
             style="fill:#0f0f0f;fill-opacity:1;stroke:none;stroke-width:0.3;stroke-dasharray:0.3, 0.9;stroke-dashoffset:0;stroke-opacity:1;stop-color:#000000"
             id="rect3290"
             width="7.5395951"
             height="2.7532237"
             x="115.65284"
             y="105.75225" /></g><use
           x="0"
           y="0"
           xlink:href="#use5588"
           id="use2150"
           transform="translate(-0.22619303,18.590978)" /><use
           x="0"
           y="0"
           xlink:href="#use2150"
           id="use2152"
           transform="translate(-0.13359675,9.2954892)" /><use
           x="0"
           y="0"
           xlink:href="#use2152"
           id="use2154"
           transform="matrix(0.93220673,0,0,0.93220673,8.2414364,18.215561)" /><use
           x="0"
           y="0"
           xlink:href="#use2154"
           id="use2156"
           transform="translate(-0.7850292,9.2954892)" /><use
           x="0"
           y="0"
           xlink:href="#use5588"
           id="use2158"
           transform="translate(-0.08463357,9.2954892)" /><use
           x="0"
           y="0"
           xlink:href="#use5588"
           id="use2160"
           transform="matrix(0.97779897,0,0,0.97779897,0.85485966,-42.011869)" /><use
           x="0"
           y="0"
           xlink:href="#use2160"
           id="use2162"
           transform="matrix(0.94097158,-0.15862533,0.15862533,0.94097158,-3.5800445,15.319602)" /><use
           x="0"
           y="0"
           xlink:href="#use2162"
           id="use2164"
           transform="rotate(-18.148117,95.838298,56.263909)" /></g><use
         x="0"
         y="0"
         xlink:href="#use4375"
         id="use2166"
         transform="matrix(-1,0,0,1,220.53212,0)" /><use
         x="0"
         y="0"
         xlink:href="#g2191"
         id="use2193"
         transform="matrix(-1,0,0,1,219.50088,0)" /><rect
         style="fill:#686868;fill-opacity:1;stroke:none;stroke-width:0.5;stroke-dasharray:0.5, 2;stroke-dashoffset:0;stroke-opacity:1;stop-color:#000000"
         id="rect2823"
         width="5.2577906"
         height="10.091107"
         x="107.62058"
         y="129.00891" /><rect
         style="fill:#000000;fill-opacity:1;stroke:none;stroke-width:0.5;stroke-dasharray:0.5, 2;stroke-dashoffset:0;stroke-opacity:1;stop-color:#000000"
         id="rect2247"
         width="7.7273445"
         height="4.6085868"
         x="106.34415"
         y="125.7751" /><use
         x="0"
         y="0"
         xlink:href="#rect2247"
         id="use2821"
         transform="translate(0.1767767,11.710086)" /><circle
         style="fill:#616161;fill-opacity:1;stroke:none;stroke-width:1;stroke-dasharray:none;stroke-dashoffset:0;stroke-opacity:1;stop-color:#000000"
         id="path2932"
         cx="110.31652"
         cy="166.18907"
         r="4.2519093" /></g></g></svg>
