<?xml version="1.0" encoding="UTF-8" standalone="no"?>
<!-- Created with Inkscape (http://www.inkscape.org/) -->

<svg
   width="71.462372mm"
   height="94.870628mm"
   viewBox="0 0 270.09401 358.56616"
   version="1.1"
   id="SVGRoot"
   inkscape:version="1.2.2 (b0a8486541, 2022-12-01)"
   sodipodi:docname="full-sails.svg"
   xmlns:inkscape="http://www.inkscape.org/namespaces/inkscape"
   xmlns:sodipodi="http://sodipodi.sourceforge.net/DTD/sodipodi-0.dtd"
   xmlns="http://www.w3.org/2000/svg"
   xmlns:svg="http://www.w3.org/2000/svg"
   xmlns:rdf="http://www.w3.org/1999/02/22-rdf-syntax-ns#"
   xmlns:cc="http://creativecommons.org/ns#"
   xmlns:dc="http://purl.org/dc/elements/1.1/">
  <sodipodi:namedview
     id="base"
     pagecolor="#ffffff"
     bordercolor="#666666"
     borderopacity="1.0"
     inkscape:pageopacity="0.0"
     inkscape:pageshadow="2"
     inkscape:zoom="1"
     inkscape:cx="45.5"
     inkscape:cy="298"
     inkscape:document-units="px"
     inkscape:current-layer="layer1"
     showgrid="false"
     inkscape:window-width="1717"
     inkscape:window-height="1013"
     inkscape:window-x="467"
     inkscape:window-y="262"
     inkscape:window-maximized="0"
     inkscape:pagecheckerboard="0"
     units="mm"
     fit-margin-left="10"
     fit-margin-top="10"
     fit-margin-right="10"
     fit-margin-bottom="10"
     inkscape:showpageshadow="2"
     inkscape:deskcolor="#d1d1d1" />
  <defs
     id="defs3737">
    <marker
       inkscape:stockid="DotL"
       orient="auto"
       refY="0"
       refX="0"
       id="marker5317"
       style="overflow:visible"
       inkscape:isstock="true">
      <path
         inkscape:connector-curvature="0"
         id="path5315"
         d="m -2.5,-1 c 0,2.76 -2.24,5 -5,5 -2.76,0 -5,-2.24 -5,-5 0,-2.76 2.24,-5 5,-5 2.76,0 5,2.24 5,5 z"
         style="fill:#000000;fill-opacity:1;fill-rule:evenodd;stroke:#000000;stroke-width:1pt;stroke-opacity:1"
         transform="matrix(0.8,0,0,0.8,5.92,0.8)" />
    </marker>
  </defs>
  <metadata
     id="metadata3740">
    <rdf:RDF>
      <cc:Work
         rdf:about="">
        <dc:format>image/svg+xml</dc:format>
        <dc:type
           rdf:resource="http://purl.org/dc/dcmitype/StillImage" />
        <cc:license
           rdf:resource="http://creativecommons.org/publicdomain/zero/1.0/" />
      </cc:Work>
      <cc:License
         rdf:about="http://creativecommons.org/publicdomain/zero/1.0/">
        <cc:permits
           rdf:resource="http://creativecommons.org/ns#Reproduction" />
        <cc:permits
           rdf:resource="http://creativecommons.org/ns#Distribution" />
        <cc:permits
           rdf:resource="http://creativecommons.org/ns#DerivativeWorks" />
      </cc:License>
    </rdf:RDF>
  </metadata>
  <g
     id="layer1"
     inkscape:groupmode="layer"
     inkscape:label="Layer 1"
     transform="translate(-336.72974,-127.18658)">
    <g
       id="g2394"
       transform="matrix(0.83222888,0,0,1.0009989,59.121062,-0.30354313)">
      <path
         id="rect287"
         style="fill:#ffffff;stroke:#000000;stroke-width:3;stroke-dasharray:none;stop-color:#000000"
         d="m 400.5096,142.76277 0.0195,0.27837 a 66.759442,31.993159 83.914977 0 0 -1.41869,-0.14076 66.759442,31.993159 83.914977 0 0 -27.63437,64.75878 66.759442,31.993159 83.914977 0 0 36.88506,68.13813 66.759442,31.993159 83.914977 0 0 1.40082,-0.11603 l 0.0763,1.0958 6.88672,0.36091 a 121.6533,27.330324 3.3732658 0 1 89.38865,-4.40128 121.6533,27.330324 3.3732658 0 1 90.96486,13.85321 l 4.60547,0.24136 -0.0801,-1.15069 a 66.759442,31.993159 83.914977 0 1 -1.33841,0.174 66.759442,31.993159 83.914977 0 1 -36.88701,-68.13823 66.759442,31.993159 83.914977 0 1 27.63632,-64.75868 66.759442,31.993159 83.914977 0 1 1.3612,0.15334 l -0.0204,-0.29404 z" />
      <path
         id="path2390"
         style="fill:#ffffff;stroke:#000000;stroke-width:3.68638;stroke-dasharray:none;stop-color:#000000"
         d="m 389.72567,289.01745 0.0242,0.33937 a 81.403537,39.617266 83.759741 0 0 -1.75709,-0.1716 81.403537,39.617266 83.759741 0 0 -34.22598,78.94966 81.403537,39.617266 83.759741 0 0 45.68323,83.06953 81.403537,39.617266 83.759741 0 0 1.73496,-0.14145 l 0.0945,1.33593 8.52941,0.43999 a 150.66311,33.321128 3.3150963 0 1 110.71048,-5.36575 150.66311,33.321128 3.3150963 0 1 112.66266,16.88893 l 5.70401,0.29425 -0.0992,-1.40285 a 81.403537,39.617266 83.759741 0 1 -1.65766,0.21213 81.403537,39.617266 83.759741 0 1 -45.68565,-83.06966 81.403537,39.617266 83.759741 0 1 34.2284,-78.94953 81.403537,39.617266 83.759741 0 1 1.68588,0.18694 l -0.0253,-0.35848 z" />
    </g>
  </g>
</svg>
