<?xml version="1.0" encoding="UTF-8" standalone="no"?>
<!-- Created with Inkscape (http://www.inkscape.org/) -->

<svg
   version="1.1"
   id="svg2"
   width="72"
   height="186"
   viewBox="0 0 72 186"
   sodipodi:docname="sol-x.svg"
   inkscape:version="1.2.2 (b0a8486541, 2022-12-01)"
   xmlns:inkscape="http://www.inkscape.org/namespaces/inkscape"
   xmlns:sodipodi="http://sodipodi.sourceforge.net/DTD/sodipodi-0.dtd"
   xmlns:xlink="http://www.w3.org/1999/xlink"
   xmlns="http://www.w3.org/2000/svg"
   xmlns:svg="http://www.w3.org/2000/svg">
  <defs
     id="defs6" />
  <sodipodi:namedview
     id="namedview4"
     pagecolor="#ffffff"
     bordercolor="#666666"
     borderopacity="1.0"
     inkscape:showpageshadow="2"
     inkscape:pageopacity="0.0"
     inkscape:pagecheckerboard="0"
     inkscape:deskcolor="#d1d1d1"
     showgrid="false"
     inkscape:zoom="5.6568542"
     inkscape:cx="15.467961"
     inkscape:cy="97.315571"
     inkscape:window-width="2549"
     inkscape:window-height="1378"
     inkscape:window-x="0"
     inkscape:window-y="37"
     inkscape:window-maximized="0"
     inkscape:current-layer="g8" />
  <g
     inkscape:groupmode="layer"
     inkscape:label="Image"
     id="g8">
    <g
       id="g6344"
       transform="translate(102.16757,1.5975503)">
      <path
         style="fill:#3b3b3b;fill-opacity:1;stroke:none;stroke-width:1px;stroke-linecap:butt;stroke-linejoin:miter;stroke-opacity:1"
         d="m -48.080542,162.86151 c 0.259838,3.1866 0.665381,6.77573 0.317964,9.93978 -3.4e-5,2.25663 -0.170638,4.35354 -1.649333,6.30232 -1.498867,0.77741 -4.622581,2.07228 -7.002761,1.67923 -0.66076,0.0242 -1.394748,0.39439 -0.908206,-0.52408"
         id="path4381"
         sodipodi:nodetypes="ccccc" />
      <use
         x="0"
         y="0"
         xlink:href="#path4381"
         id="use4383"
         transform="matrix(-1,0,0,1,-131.75678,0)" />
      <path
         id="path2576"
         style="opacity:1;fill:#fdfdfd;fill-opacity:1;stroke:#000000;stroke-width:1px;stroke-linecap:butt;stroke-linejoin:miter;stroke-opacity:1"
         d="m -66.004009,23.347656 v 0.0078 c -11.330208,0.399665 -19.106618,10.627889 -22.472656,20.5625 -4.324503,12.994241 -4.219239,26.91238 -4.701172,40.648437 -1.198844,8.664059 0.522321,16.892857 0.820313,25.562507 0.41509,6.38588 0.90484,12.82636 2.263672,20.15039 1.795574,12.36415 3.941401,23.05376 6.708984,33.84375 1.996616,5.74668 1.72623,15.11535 8.242188,16.26953 3.263212,0.71158 6.131236,0.59162 9.183593,0.38672 3.052358,0.2049 5.920381,0.32486 9.183594,-0.38672 6.515958,-1.15418 6.245572,-10.52285 8.242188,-16.26953 2.767583,-10.78999 4.91341,-21.4796 6.708984,-33.84375 1.358832,-7.32403 1.848581,-13.76451 2.263672,-20.15039 0.297992,-8.66965 2.019156,-16.898448 0.820312,-25.562507 -0.481932,-13.736057 -0.376669,-27.654196 -4.701172,-40.648437 -3.366037,-9.934611 -11.142447,-20.162835 -22.472656,-20.5625 v -0.0078 c -0.01528,4.67e-4 -0.02966,0.0034 -0.04492,0.0039 -0.01526,-5.02e-4 -0.02965,-0.0034 -0.04492,-0.0039 z" />
      <path
         style="fill:none;stroke:#000000;stroke-width:1px;stroke-linecap:butt;stroke-linejoin:miter;stroke-opacity:1"
         d="m -49.028929,33.380574 c 5.611458,10.635012 3.795483,24.553441 4.578757,33.995609 0.389923,8.675218 -0.345677,18.619427 -0.220077,27.453065 -0.130241,9.392422 -0.669138,17.344072 -1.217376,26.515792 -0.01725,7.86058 -0.895469,14.59236 -1.711876,23.65124 0.02307,8.11734 -1.313511,13.29481 -1.644826,20.63719"
         id="path2582"
         sodipodi:nodetypes="cccccc" />
      <path
         style="fill:none;stroke:#000000;stroke-width:1px;stroke-linecap:butt;stroke-linejoin:miter;stroke-opacity:1"
         d="m -83.030518,33.380574 c -5.611458,10.635012 -3.795483,24.553441 -4.578757,33.995609 -0.389923,8.675218 0.345677,18.619427 0.220077,27.453065 0.130241,9.392422 0.669138,17.344072 1.217376,26.515792 0.01725,7.86058 0.895469,14.59236 1.711876,23.65124 -0.02307,8.11734 1.313511,13.29481 1.644826,20.63719"
         id="path2584"
         sodipodi:nodetypes="cccccc" />
      <path
         style="fill:none;stroke:#000000;stroke-width:4;stroke-linecap:butt;stroke-linejoin:miter;stroke-dasharray:none;stroke-opacity:1"
         d="M -65.460876,36.725434 V 7.2424551"
         id="path4038" />
      <path
         style="fill:none;stroke:#000000;stroke-width:1px;stroke-linecap:butt;stroke-linejoin:miter;stroke-opacity:1"
         d="m -74.473337,25.563762 8.731392,-23.5426149 9.424926,23.9280569"
         id="path4042" />
      <path
         style="fill:none;stroke:#000000;stroke-width:1px;stroke-linecap:butt;stroke-linejoin:miter;stroke-opacity:1"
         d="m -69.072476,11.596687 h 7.332089"
         id="path4044" />
      <path
         style="fill:none;stroke:#000000;stroke-width:1px;stroke-linecap:butt;stroke-linejoin:miter;stroke-opacity:1"
         d="m -70.543573,15.218193 h 10.030416"
         id="path4046" />
      <path
         style="fill:none;stroke:#000000;stroke-width:1px;stroke-linecap:butt;stroke-linejoin:miter;stroke-opacity:1"
         d="m -72.002218,18.933977 h 13.379635"
         id="path4048" />
      <path
         style="fill:none;stroke:#000000;stroke-width:1px;stroke-linecap:butt;stroke-linejoin:miter;stroke-opacity:1"
         d="m -72.969742,22.807366 h 15.220339"
         id="path4050" />
      <g
         id="g4369">
        <rect
           style="opacity:1;fill:#000000;fill-opacity:1;stroke:none;stroke-width:1;stroke-dasharray:none;stroke-opacity:1;stop-color:#000000"
           id="rect4148"
           width="2.4898012"
           height="4.7354503"
           x="-86.778572"
           y="143.00787" />
        <use
           x="0"
           y="0"
           xlink:href="#rect4148"
           id="use4306"
           transform="translate(-2.9790984,-48.092173)" />
        <use
           x="0"
           y="0"
           xlink:href="#use4306"
           id="use4308"
           transform="translate(-0.16648882,-8.8226401)" />
        <use
           x="0"
           y="0"
           xlink:href="#use4308"
           id="use4310"
           transform="translate(-0.00864246,-8.1580225)" />
        <use
           x="0"
           y="0"
           xlink:href="#use4310"
           id="use4312"
           transform="translate(-0.07476649,-8.6241323)" />
        <use
           x="0"
           y="0"
           xlink:href="#use4312"
           id="use4314"
           transform="translate(0.02296026,-8.138342)" />
        <use
           x="0"
           y="0"
           xlink:href="#rect4148"
           id="use4316"
           transform="translate(-0.81252646,-8.705324)" />
        <use
           x="0"
           y="0"
           xlink:href="#use4316"
           id="use4318"
           transform="translate(-1.3082544,-15.629913)" />
        <use
           x="0"
           y="0"
           xlink:href="#use4318"
           id="use4320"
           transform="translate(-0.47983483,-7.5744674)" />
        <use
           x="0"
           y="0"
           xlink:href="#use4320"
           id="use4322"
           transform="translate(1.0585508,16.439596)" />
        <use
           x="0"
           y="0"
           xlink:href="#use4322"
           id="use4324"
           transform="translate(-1.3075908,-75.141036)" />
        <use
           x="0"
           y="0"
           xlink:href="#rect4148"
           id="use4326"
           transform="translate(-5.1887532,-26.211472)" />
        <use
           x="0"
           y="0"
           xlink:href="#use4326"
           id="use4328"
           transform="translate(2.3525737,-13.392582)" />
        <use
           x="0"
           y="0"
           xlink:href="#use4326"
           id="use4330"
           transform="translate(-1.6529441,-32.21423)" />
        <use
           x="0"
           y="0"
           xlink:href="#use4330"
           id="use4332"
           transform="translate(0.25984573,-9.4968383)" />
        <use
           x="0"
           y="0"
           xlink:href="#use4332"
           id="use4334"
           transform="translate(0.62940552,-8.4843862)" />
        <use
           x="0"
           y="0"
           xlink:href="#use4326"
           id="use4336"
           transform="translate(-0.61462379,-8.249518)" />
        <use
           x="0"
           y="0"
           xlink:href="#use4336"
           id="use4338"
           transform="translate(-0.30799433,-7.6346514)" />
        <use
           x="0"
           y="0"
           xlink:href="#use4338"
           id="use4340"
           transform="translate(-0.9054087,-8.649251)" />
        <use
           x="0"
           y="0"
           xlink:href="#use4326"
           id="use4342"
           transform="translate(1.2401666,7.4539797)" />
        <rect
           style="fill:#000000;fill-opacity:1;stroke:none;stroke-width:1;stroke-dasharray:none;stroke-opacity:1;stop-color:#000000"
           id="use4344"
           width="1.6150544"
           height="5.0116591"
           x="-91.971954"
           y="55.682983" />
      </g>
      <use
         x="0"
         y="0"
         xlink:href="#g4369"
         id="use4371"
         transform="matrix(-1,0,0,1,-132.3437,0)" />
      <path
         style="fill:none;stroke:#000000;stroke-width:2;stroke-linecap:butt;stroke-linejoin:miter;stroke-dasharray:none;stroke-opacity:1"
         d="m -50.656396,31.3591 5.891307,-5.891306"
         id="path4373" />
      <use
         x="0"
         y="0"
         xlink:href="#path4373"
         id="use4375"
         transform="matrix(-1,0,0,1,-131.48341,0)" />
      <path
         style="fill:none;stroke:#555555;stroke-width:3;stroke-linecap:butt;stroke-linejoin:miter;stroke-dasharray:none;stroke-opacity:1"
         d="m -69.464545,33.476882 h 8.02954"
         id="path4377" />
      <path
         style="fill:none;stroke:#000000;stroke-width:1px;stroke-linecap:butt;stroke-linejoin:miter;stroke-opacity:1"
         d="m -85.074529,140.57677 h 4.761631 l 3.998661,3.99866 h 19.79251 l 3.820884,-3.82088 h 5.031816"
         id="path4379" />
      <g
         id="g5174"
         transform="translate(65.150791,3.425329)">
        <circle
           style="opacity:1;fill:#000000;fill-opacity:1;stroke:none;stroke-width:3;stroke-dasharray:none;stroke-opacity:1;stop-color:#000000"
           id="path5165"
           cx="-130.59041"
           cy="40.396343"
           r="2.3812013" />
        <path
           style="fill:none;stroke:#000000;stroke-width:2;stroke-linecap:butt;stroke-linejoin:miter;stroke-dasharray:none;stroke-opacity:1"
           d="m -134.47258,36.880038 h 7.76433"
           id="path5167" />
        <use
           x="0"
           y="0"
           xlink:href="#path5167"
           id="use5169"
           transform="translate(0,7.0326137)" />
      </g>
      <g
         id="g5182"
         transform="matrix(1.1987422,0,0,1.1987422,90.88138,52.62293)">
        <circle
           style="opacity:1;fill:#000000;fill-opacity:1;stroke:none;stroke-width:3;stroke-dasharray:none;stroke-opacity:1;stop-color:#000000"
           id="circle5176"
           cx="-130.59041"
           cy="40.396343"
           r="2.3812013" />
        <path
           style="fill:none;stroke:#000000;stroke-width:2;stroke-linecap:butt;stroke-linejoin:miter;stroke-dasharray:none;stroke-opacity:1"
           d="m -134.47258,36.880038 h 7.76433"
           id="path5178" />
        <use
           x="0"
           y="0"
           xlink:href="#path5167"
           id="use5180"
           transform="translate(0,7.0326137)" />
      </g>
      <g
         id="g5192"
         transform="matrix(0.71840263,0,0,0.71840263,28.167551,122.69343)">
        <circle
           style="opacity:1;fill:#000000;fill-opacity:1;stroke:none;stroke-width:3;stroke-dasharray:none;stroke-opacity:1;stop-color:#000000"
           id="circle5186"
           cx="-130.59041"
           cy="40.396343"
           r="2.3812013" />
        <path
           style="fill:none;stroke:#000000;stroke-width:2;stroke-linecap:butt;stroke-linejoin:miter;stroke-dasharray:none;stroke-opacity:1"
           d="m -134.47258,36.880038 h 7.76433"
           id="path5188" />
        <use
           x="0"
           y="0"
           xlink:href="#path5167"
           id="use5190"
           transform="translate(0,7.0326137)" />
      </g>
      <g
         id="g5610">
        <g
           id="g5582"
           transform="matrix(0.23979724,0,0,0.27437312,-77.060049,90.378082)">
          <path
             id="rect5460"
             style="opacity:1;fill:#989898;stroke-width:0.281042;stroke-dasharray:0.281042, 0.843127;stop-color:#000000"
             d="m 96.047775,92.869062 30.075815,1.224901 v 11.710427 l -30.075815,1.44764 z"
             sodipodi:nodetypes="ccccc" />
          <path
             id="rect5246"
             style="opacity:1;stroke-width:0.3;stroke-dasharray:0.3, 0.9;stop-color:#000000"
             d="m 99.27272,95.704502 39.33318,1.365531 v 5.914777 l -39.33318,0.8901 -1.76343,-4.081307 z"
             sodipodi:nodetypes="cccccc" />
          <path
             id="rect5457"
             style="opacity:1;stroke-width:0.3;stroke-dasharray:0.3, 0.9;stop-color:#000000"
             d="m 130.6711,96.8726 c 3.35943,-0.35114 6.71887,-0.70228 10.0783,-1.05342 0,2.764873 0,5.52975 0,8.29462 -3.35943,-0.37429 -6.71887,-0.74859 -10.0783,-1.12288 0,-2.03944 0,-4.07888 0,-6.11832 z"
             sodipodi:nodetypes="ccccc" />
          <rect
             style="opacity:1;fill:#0f0f0f;fill-opacity:1;stroke:none;stroke-width:0.3;stroke-dasharray:0.3, 0.9;stroke-dashoffset:0;stroke-opacity:1;stop-color:#000000"
             id="rect5515"
             width="7.5395951"
             height="2.7532237"
             x="99.071823"
             y="91.660179" />
          <use
             x="0"
             y="0"
             xlink:href="#rect5515"
             id="use5569"
             transform="translate(16.499079)" />
          <use
             x="0"
             y="0"
             xlink:href="#rect5515"
             id="use5571"
             transform="translate(0,14.420939)" />
          <use
             x="0"
             y="0"
             xlink:href="#rect5515"
             id="use5573"
             transform="translate(16.581015,14.092072)" />
        </g>
        <use
           x="0"
           y="0"
           xlink:href="#g5582"
           id="use5584"
           transform="translate(-0.4090097,8.500394)" />
        <use
           x="0"
           y="0"
           xlink:href="#use5584"
           id="use5586"
           transform="translate(-0.5303301,8.500394)" />
        <use
           x="0"
           y="0"
           xlink:href="#use5586"
           id="use5588"
           transform="translate(1.3184667,-25.501182)" />
        <use
           x="0"
           y="0"
           xlink:href="#use5586"
           id="use5590"
           transform="translate(0.07633637,-93.94631)" />
        <use
           x="0"
           y="0"
           xlink:href="#use5590"
           id="use5592"
           transform="translate(1.4430541,8.6945024)" />
        <use
           x="0"
           y="0"
           xlink:href="#use5592"
           id="use5594"
           transform="translate(0.44179065,8.8366496)" />
      </g>
      <use
         x="0"
         y="0"
         xlink:href="#g5610"
         id="use5612"
         transform="matrix(-1,0,0,1,-132.17273,0)" />
      <g
         id="g5663"
         transform="translate(-172.66781,-1.8508037)">
        <path
           style="fill:none;stroke:#5e5e5e;stroke-width:2;stroke-linecap:butt;stroke-linejoin:miter;stroke-dasharray:none;stroke-opacity:1"
           d="m 102.95603,72.455517 h 8.17839"
           id="path5618" />
        <path
           style="font-variation-settings:normal;opacity:1;vector-effect:none;fill:none;fill-opacity:1;stroke:#5e5e5e;stroke-width:2;stroke-linecap:butt;stroke-linejoin:miter;stroke-miterlimit:4;stroke-dasharray:none;stroke-dashoffset:0;stroke-opacity:1;-inkscape-stroke:none;stop-color:#000000;stop-opacity:1"
           d="m 102.08453,78.522333 h 10.19364"
           id="path5620" />
        <path
           style="font-variation-settings:normal;opacity:1;vector-effect:none;fill:none;fill-opacity:1;stroke:#5e5e5e;stroke-width:2;stroke-linecap:butt;stroke-linejoin:miter;stroke-miterlimit:4;stroke-dasharray:none;stroke-dashoffset:0;stroke-opacity:1;-inkscape-stroke:none;stop-color:#000000;stop-opacity:1"
           d="m 102.24298,84.780578 h 9.83101"
           id="path5622" />
        <g
           id="g5655">
          <path
             style="fill:none;stroke:#000000;stroke-width:1px;stroke-linecap:butt;stroke-linejoin:miter;stroke-opacity:1"
             d="m 106.84038,65.02767 c 3.06797,2.446028 5.41762,6.418645 5.20942,10.393922 0.11002,5.381386 0.31058,8.855645 -1.09255,12.743901 -0.61993,1.50178 -3.01589,1.256887 -3.88386,1.331035"
             id="path5614"
             sodipodi:nodetypes="cccc" />
          <use
             x="0"
             y="0"
             xlink:href="#path5614"
             id="use5616"
             transform="matrix(-1,0,0,1,214.21347,0)" />
        </g>
      </g>
      <g
         id="g5671"
         transform="translate(-184.12912,-13.632996)">
        <path
           style="fill:none;stroke:#000000;stroke-width:1px;stroke-linecap:butt;stroke-linejoin:miter;stroke-opacity:1"
           d="m 127.49193,78.988367 c 1.01993,2.000516 2.88894,3.714194 3.34082,5.906443 0.35674,2.888476 0.50392,5.811638 0.01,8.693399 -0.27128,2.408508 -0.67482,4.8 -1.12859,7.180201 -0.92472,0.093 -1.84943,0.18607 -2.77415,0.27911"
           id="path5665"
           sodipodi:nodetypes="cccccc" />
        <use
           x="0"
           y="0"
           xlink:href="#path5665"
           id="use5667"
           transform="matrix(-1,0,0,1,255.14366,0)" />
      </g>
      <use
         x="0"
         y="0"
         xlink:href="#g5671"
         id="use5673"
         transform="translate(-17.84001)" />
      <rect
         style="font-variation-settings:normal;opacity:1;fill:none;fill-opacity:1;stroke:#010101;stroke-width:1;stroke-linecap:butt;stroke-linejoin:miter;stroke-miterlimit:4;stroke-dasharray:none;stroke-dashoffset:0;stroke-opacity:1;stop-color:#000000;stop-opacity:1"
         id="rect5727"
         width="7.6262355"
         height="12.864788"
         x="-69.276993"
         y="130.03941" />
      <g
         id="g6261"
         transform="translate(-45.227062,-60.182916)">
        <rect
           style="font-variation-settings:normal;fill:#000000;fill-opacity:1;stroke:none;stroke-width:1;stroke-linecap:butt;stroke-linejoin:miter;stroke-miterlimit:4;stroke-dasharray:none;stroke-dashoffset:0;stroke-opacity:1;stop-color:#000000"
           id="rect5937"
           width="3.4799879"
           height="3.5905488"
           x="-22.156637"
           y="219.49895" />
        <rect
           style="font-variation-settings:normal;fill:#747474;fill-opacity:1;stroke:none;stroke-width:0.811301;stroke-linecap:butt;stroke-linejoin:miter;stroke-miterlimit:4;stroke-dasharray:none;stroke-dashoffset:0;stroke-opacity:1;stop-color:#000000"
           id="rect6199"
           width="10.278317"
           height="2.1251938"
           x="-25.555799"
           y="223.34904" />
      </g>
    </g>
  </g>
</svg>
