<?xml version="1.0" encoding="UTF-8" standalone="no"?>
<!-- Created with Inkscape (http://www.inkscape.org/) -->

<svg
   id="svg2"
   sodipodi:docname="officer.svg"
   viewBox="0 0 547.85918 729.74724"
   version="1.1"
   inkscape:version="1.2.2 (b0a8486541, 2022-12-01)"
   width="547.85919"
   height="729.74725"
   xmlns:inkscape="http://www.inkscape.org/namespaces/inkscape"
   xmlns:sodipodi="http://sodipodi.sourceforge.net/DTD/sodipodi-0.dtd"
   xmlns="http://www.w3.org/2000/svg"
   xmlns:svg="http://www.w3.org/2000/svg"
   xmlns:rdf="http://www.w3.org/1999/02/22-rdf-syntax-ns#"
   xmlns:cc="http://creativecommons.org/ns#"
   xmlns:dc="http://purl.org/dc/elements/1.1/">
  <defs
     id="defs6" />
  <sodipodi:namedview
     id="namedview4"
     fit-margin-left="0"
     inkscape:zoom="0.82807018"
     borderopacity="1"
     inkscape:current-layer="svg2"
     inkscape:cx="591.73728"
     inkscape:cy="399.72457"
     inkscape:window-maximized="1"
     showgrid="false"
     fit-margin-right="0"
     bordercolor="#666666"
     inkscape:window-x="0"
     guidetolerance="10"
     objecttolerance="10"
     inkscape:window-y="37"
     fit-margin-bottom="0"
     inkscape:window-width="2560"
     inkscape:pageopacity="0"
     inkscape:pageshadow="2"
     pagecolor="#ffffff"
     gridtolerance="10"
     inkscape:window-height="1379"
     fit-margin-top="0"
     inkscape:showpageshadow="2"
     inkscape:pagecheckerboard="0"
     inkscape:deskcolor="#d1d1d1" />
  <g
     id="g4033"
     transform="matrix(0.24101,-0.2519,0.3002,0.27717,16.583478,574.81943)"
     style="fill:#000000;fill-opacity:1;stroke:#000000;stroke-opacity:1" />
  <path
     id="path4154-3-90-1"
     style="stroke:#000000"
     d="m 295.48438,244.96797 a 3.0190678,3.9247882 0 0 1 -4.14551,0.87303 3.0190678,3.9247882 0 0 1 -0.80613,-5.35789 3.0190678,3.9247882 0 0 1 4.09303,-1.2218 3.0190678,3.9247882 0 0 1 1.07257,5.27835 m -2.03397,-8.0247 a 3.0190678,3.9247882 0 0 1 -4.14551,0.87304 3.0190678,3.9247882 0 0 1 -0.80613,-5.35789 3.0190678,3.9247882 0 0 1 4.09303,-1.22181 3.0190678,3.9247882 0 0 1 1.07257,5.27836 m -1.41397,-8.6297 a 3.0190678,3.9247882 0 0 1 -4.14551,0.87304 3.0190678,3.9247882 0 0 1 -0.80613,-5.35789 3.0190678,3.9247882 0 0 1 4.09303,-1.2218 3.0190678,3.9247882 0 0 1 1.07257,5.27835 m -0.82395,-8.6287 a 3.0190678,3.9247882 0 0 1 -4.1455,0.87303 3.0190678,3.9247882 0 0 1 -0.80614,-5.35789 3.0190678,3.9247882 0 0 1 4.09303,-1.2218 3.0190678,3.9247882 0 0 1 1.07257,5.27835 m -0.21396,-7.42069 a 3.0190678,3.9247882 0 0 1 -4.1455,0.87303 3.0190678,3.9247882 0 0 1 -0.80614,-5.35788 3.0190678,3.9247882 0 0 1 4.09303,-1.22181 3.0190678,3.9247882 0 0 1 1.07257,5.27835 m -2.02396,-8.02569 a 3.0190678,3.9247882 0 0 1 -4.1455,0.87304 3.0190678,3.9247882 0 0 1 -0.80614,-5.35789 3.0190678,3.9247882 0 0 1 4.09303,-1.2218 3.0190678,3.9247882 0 0 1 1.07257,5.27835 m -1.42395,-8.0247 a 3.0190678,3.9247882 0 0 1 -4.1455,0.87303 3.0190678,3.9247882 0 0 1 -0.80614,-5.35788 3.0190678,3.9247882 0 0 1 4.09303,-1.22181 3.0190678,3.9247882 0 0 1 1.07257,5.27836 m -13.50184,-20.88802 29.24671,-9.63846 0.94498,2.8674 -29.24672,9.63846 z m -1.78461,-5.48736 30.39673,-4.93044 0.48339,2.98015 -30.39673,4.93044 z m -1.48695,-2.36938 29.76383,-7.89841 0.77438,2.9181 -29.76383,7.89841 z m 83.58944,124.57107 a 3.0190678,3.9247882 0 0 1 -4.14551,0.87304 3.0190678,3.9247882 0 0 1 -0.80613,-5.35789 3.0190678,3.9247882 0 0 1 4.09303,-1.22181 3.0190678,3.9247882 0 0 1 1.07257,5.27836 m -14.10397,-13.4517 a 3.0190678,3.9247882 0 0 1 -4.14551,0.87303 3.0190678,3.9247882 0 0 1 -0.80613,-5.35789 3.0190678,3.9247882 0 0 1 4.09303,-1.2218 3.0190678,3.9247882 0 0 1 1.07257,5.27835 m -10.48395,-20.71171 a 3.0190678,3.9247882 0 0 1 -4.14551,0.87304 3.0190678,3.9247882 0 0 1 -0.80613,-5.35789 3.0190678,3.9247882 0 0 1 4.09303,-1.22181 3.0190678,3.9247882 0 0 1 1.07257,5.27836 m -7.45398,-13.45669 a 3.0190678,3.9247882 0 0 1 -4.14551,0.87303 3.0190678,3.9247882 0 0 1 -0.80613,-5.35789 3.0190678,3.9247882 0 0 1 4.09303,-1.2218 3.0190678,3.9247882 0 0 1 1.07257,5.27835 m -9.87397,-14.66669 a 3.0190678,3.9247882 0 0 1 -4.1455,0.87303 3.0190678,3.9247882 0 0 1 -0.80614,-5.35789 3.0190678,3.9247882 0 0 1 4.09303,-1.2218 3.0190678,3.9247882 0 0 1 1.07257,5.27835 m -9.27396,-13.4597 a 3.0190678,3.9247882 0 0 1 -4.1455,0.87304 3.0190678,3.9247882 0 0 1 -0.80614,-5.35789 3.0190678,3.9247882 0 0 1 4.09304,-1.2218 3.0190678,3.9247882 0 0 1 1.07256,5.27835 m -5.64395,-14.9687 a 3.0190678,3.9247882 0 0 1 -4.1455,0.87304 3.0190678,3.9247882 0 0 1 -0.80614,-5.35789 3.0190678,3.9247882 0 0 1 4.09303,-1.22181 3.0190678,3.9247882 0 0 1 1.07257,5.27836 m 26.55516,-28.33922 c -0.271,0.001 -0.5554,0.0301 -0.8438,0.0625 -9.436,1.0611 -26.871,9.9922 -31.031,6.9375 -0.404,-0.33179 1.2136,4.5438 -0.3125,11.031 -7.1948,19.834 2.3036,14.181 3.9063,27.375 0.4266,4.6631 5.0942,3.868 12.469,13.094 2.7382,3.4256 20.389,46.986 21.812,45.188 0.019,13.376 35.047,35.178 35.156,38.219 1.2446,-6.511 34.858,-38.496 35.469,-34.031 0.385,2.8163 -16.576,11.734 -16.125,12.969 0.9794,2.6838 11.112,16.017 16.125,13.094 4.2572,-2.482 12.545,-14.787 12.375,-15.344 -0.3719,-1.2223 -5.738,-12.515 -11.219,-16.594 -5.5741,-4.1486 -11.26,-1.0798 -11.969,-2.3438 -23.736,-21.449 -42.14,-41.035 -50.906,-62.812 9.837,17.102 47.533,62.37 51.344,59.344 1.0926,-0.86766 40.965,7.8217 39.312,2.9375 -1.4348,-4.2413 2.2293,-14.405 -3.4375,-21.156 -2.7292,-3.2512 -13.128,-11.429 -18.938,-10.594 -3.6476,0.52453 -2.2823,9.6611 -5.3437,8.6875 -3.9783,-1.2649 -9.026,-3.304 -12.063,-7.9062 -11.082,-16.797 -26.108,-46.629 -31.25,-46.812 -3.1689,-0.11321 -21.205,-7.0368 -23.937,-10.156 -1.9558,3.2536 -2.1938,-11.224 -10.594,-11.188 z m -4,3.4062 c 6.6318,-0.0792 9.5126,2.9673 6.75,7.4062 l -0.9062,1.2188 c -4.3636,5.3298 -14.674,10.129 -23.031,10.719 -8.3574,0.58945 -11.582,-3.2326 -7.2187,-8.5625 4.3633,-5.3298 14.674,-10.129 23.031,-10.719 0.4749,-0.0335 0.9329,-0.0572 1.375,-0.0625 z m 11.312,14.75 c 2.1334,-0.13733 3.0878,0.42107 2.4375,1.6562 l -0.4688,0.6875 c -2.615,3.1598 -12.016,8.2985 -20.969,11.5 -8.9526,3.2015 -14.084,3.2535 -11.469,0.0937 2.615,-3.1598 12.016,-8.3297 20.969,-11.531 4.0695,-1.4553 7.3666,-2.2689 9.5,-2.4062 z m 0.3125,9.2188 c 3.7013,0.018 5.5214,1.9619 4.4375,5.375 l -0.5,1.3125 c -2.7604,5.7278 -11.511,12.477 -19.531,15.094 -8.0199,2.6169 -12.292,0.10278 -9.5312,-5.625 2.7604,-5.7278 11.511,-12.477 19.531,-15.094 1.8231,-0.59476 3.4394,-0.94608 4.8438,-1.0312 0.2633,-0.016 0.5032,-0.0324 0.75,-0.0312 z m 2.375,18.75 c 3.2194,-0.20139 4.8522,1.3491 3.9688,4.2188 l -0.4063,1.0312 c -2.1094,4.5147 -8.7775,9.8436 -14.906,11.906 -6.1282,2.0626 -9.3906,0.0772 -7.2812,-4.4375 2.1094,-4.5147 8.7778,-9.8436 14.906,-11.906 1.3932,-0.4688 2.6457,-0.74537 3.7188,-0.8125 z m 8.9375,10.875 c 3.0444,0.0193 4.5172,1.9272 3.625,5.25 l -0.4375,1.25 c -2.2722,5.5762 -9.4611,12.171 -16.062,14.719 -6.6014,2.5476 -10.116,0.1074 -7.8437,-5.4688 2.2717,-5.5762 9.4923,-12.171 16.094,-14.719 1.5004,-0.57902 2.8441,-0.91709 4,-1 0.2167,-0.0156 0.422,-0.0325 0.625,-0.0312 z m 10.781,16.281 c 3.466,0.11022 5.1327,2.2468 4.0937,5.9375 l -0.5,1.4375 c -2.7062,6.3343 -11.294,13.825 -19.156,16.719 -7.8623,2.894 -12.019,0.0843 -9.3124,-6.25 2.7056,-6.3343 11.262,-13.794 19.125,-16.688 2.2332,-0.82218 4.1743,-1.2064 5.75,-1.1562 z m 14.5,14.5 c 3.4659,0.11022 5.1327,2.2468 4.0937,5.9375 l -0.5313,1.4375 c -2.7056,6.3343 -11.262,13.794 -19.125,16.688 -7.8623,2.894 -12.05,0.11556 -9.3437,-6.2188 2.7062,-6.3343 11.294,-13.825 19.156,-16.719 2.2331,-0.82218 4.1743,-1.1751 5.75,-1.125 z m 13.594,13.875 c 3.4665,0.11022 5.133,2.2468 4.0937,5.9375 l -0.5312,1.4375 c -2.7062,6.3343 -11.262,13.825 -19.125,16.719 -7.8625,2.894 -12.05,0.11556 -9.3438,-6.2188 2.7069,-6.3343 11.263,-13.825 19.125,-16.719 2.2345,-0.82218 4.2056,-1.2064 5.7813,-1.1562 z m -88.672,147.714 c -0.4041,-0.33179 1.1934,4.5399 -0.3327,11.027 9.6924,19.528 15.549,35.844 19.58,53.127 0.6582,2.8216 -16.847,16.538 -16.277,19.429 2.7618,-3.0934 3.2523,7.1978 6.9474,5.8055 4.8169,-1.8149 11.198,-0.42716 16.07,-5.3861 1.605,-1.6338 4.5326,-6.3763 6.3764,-7.1728 1.5939,-0.6886 3.7583,4.0308 5.2756,3.259 3.2416,-1.649 6.6176,-4.8161 10.315,-5.7037 -0.4994,-9.7232 -9.5113,-26.447 -7.2951,-56.925 -4.0502,4.3746 -5.1568,-22.462 -13.25,-21.991 -9.4802,0.5521 -23.25,7.5856 -27.41,4.5309 z m 63.22885,-85.00714 c 2.10236,-14.15289 10.29104,2.06947 12.26992,2.16187 4.98774,0.23288 8.21756,-9.90542 11.36362,1.32504 m -21.67279,-3.39536 c 6.57362,2.09178 11.18706,6.60482 16.21175,11.24404 m -12.70138,-4.56542 c 3.34279,1.53324 5.8925,-0.71543 6.46947,-3.19364 m -8.24123,-1.02038 c -17.80219,4.77429 17.3589,20.88792 6.12981,3.94082 m 3.95115,14.70009 -6.56851,-6.79181 -6.6244,1.5654 -1.74081,-6.76481 -8.89671,-2.82062 3.7519,-4.15382 -7.77073,-6.12923 7.81149,0.0438 -3.67656,-7.09665 8.88727,4.22458 1.82194,-5.35338 6.56851,6.7918 6.6244,-1.56539 1.74081,6.7648 8.89671,2.82063 -3.7519,4.15382 7.77073,6.12922 -7.81148,-0.0438 3.67656,7.09666 -8.88728,-4.22459 z M 271.02348,319.83943 c 5.2336,17.485 22.471,75.337 24.024,92.177 0.50975,5.5275 12.092,2.6786 11.419,4.7427 3.0229,-0.60032 17.608,-6.6264 17.632,-9.1731 0.1851,-19.952 -10.127,-63.03 2.812,-62.665 4.4103,-0.81005 9.8172,-62.39 -16.586,-63.928 -0.9609,0.81667 -9.6725,2.1434 -21.437,8.7044 -9.0369,5.0398 -23.528,12.02 -27.739,12.779 -6.8378,1.232 14.385,20.154 9.875,17.362 z M 250.51589,303.1028 a 16.604874,10.264831 0 0 1 -22.80028,2.28332 16.604874,10.264831 0 0 1 -4.43374,-14.01294 16.604874,10.264831 0 0 1 22.51167,-3.19549 16.604874,10.264831 0 0 1 5.89913,13.80493 m 101.29081,5.86681 c -6.0825,0.21258 -13.219,2.3041 -17.145,6.0625 -6.9803,6.6817 -14.703,19.762 -5.3484,24.748 2.5125,1.3392 11.952,11.875 14.829,12.317 0.9084,3.6107 33.037,15.433 37.691,14.778 10.893,-1.5334 16.442,-5.6206 22.034,-9.767 l 5.6329,-13.764 c 4.8175,-6.7438 -15.02,-16.459 -22.917,-21.083 -12.186,-4.4562 -22.371,-13.613 -34.777,-13.292 z m -127.55,31.33 c 3.9525,13.205 -2.316,37.116 0.36814,56.762 0.87003,6.368 19.049,13.782 19.43,17.904 0.50974,5.5275 44.698,-7.5862 44.025,-5.5221 3.0229,-0.60032 41.15696,5.4499 41.18096,2.9032 0.1851,-19.952 94.936,55.317 107.88,55.683 0.7268,0.57126 -45.579,-129.85 -52.211,-138.8 -0.9609,0.81667 -128.61996,-37.708 -140.38996,-31.147 -9.0369,5.0398 -27.151,6.5861 -31.362,7.3448 -6.8378,1.232 15.593,37.665 11.083,34.873 z m 38.63,-220.29 c -8.2302,0.41221 15.352,1.742 11.291,14.197 3.0229,-0.60032 6.136,1.827 6.1596,-0.71969 0.18511,-19.952 11.61,0.97376 24.549,1.3397 0.7268,0.57126 -0.2933,-13.313 -6.9251,-22.265 -1.699,1.444 -8.085,5.2455 -17.778,6.992 -6.8377,1.232 -12.786,3.2474 -17.297,0.45513 z m 7.64,58.34 c 13.904,-0.96763 17.661,0.64996 34.964,-10.3 l -2.2468,-12.963 c -5.2156,-1.6929 -24.991,0.62667 -31.226,6.3436 -3.8647,3.5435 -4.7026,13.162 -1.4914,16.92 z m -14.19,-59.45 c -0.40408,-0.33179 1.1934,4.5399 -0.33268,11.027 -2.4665,10.485 -8.755,16.533 0.74754,15.481 3.7124,-0.41107 2.3851,2.2453 3.1752,8.2886 0.61677,4.7173 2.5329,7.3144 8.2243,3.4217 0.47868,-0.3274 11.679,-3.7731 12.18,-3.7255 -0.14132,0.90171 -9.9526,3.6762 -10.101,4.5794 -1.1556,7.0351 -0.45614,1.9124 2.3611,8.8861 12.514,-14.016 13.46,-9.0222 29.28504,-12.821 4.1766,-7.5668 -5.54424,2.8351 -0.9737,-11.414 4.8095,0.57126 6.3513,-18.445 -1.4908,-27.397 -2.01814,3.3585 -10.66704,5.9547 -19.89104,6.992 -9.4369,1.0611 -19.024,-0.26399 -23.184,-3.3187 z m 26.34667,-47.316625 a 5.2833686,5.4343219 0 0 1 -7.25464,1.208817 5.2833686,5.4343219 0 0 1 -1.41073,-7.418613 5.2833686,5.4343219 0 0 1 7.1628,-1.691729 5.2833686,5.4343219 0 0 1 1.877,7.30849 m 3.40704,-13.895088 a 10.566737,34.71928 0 0 1 -14.50927,7.722998 10.566737,34.71928 0 0 1 -2.82147,-47.396696 10.566737,34.71928 0 0 1 14.32561,-10.8082739 10.566737,34.71928 0 0 1 3.75399,46.6931329 m -14.837,7.733585 c -8.1398,-3.0423 -19.086,-9.2274 -22.094,-0.6061 -4.3969,12.604 -0.92635,20.954 -1.4548,31.039 -0.37078,7.0763 2.4735,19.611002 1.7653,25.136002 1.9574,0.94906 7.7283,3.7128 9.7332,3.8487 29.91,2.0263 37.608,-5.4148 42.321,-7.2363 -2.5107,-20.296002 -3.2243,-15.649002 -8.6622,-27.684002 -3.2358,-7.7145 -3.1636,-13.578 -5.5594,-26.359 -4.5475,-4.9246 -12.28,3.0098 -16.049,1.862 z m 33.93,107.670002 c -6.2701,0.004 -10.999,6.1316 -16.86,7.4862 -8.478,1.9597 -15.674,-1.1761 -21.402,3.608 -2.4743,2.0666 -6.934,4.6534 -9.0978,7.5976 -0.1861,0.25322 -3.8692,2.1435 -1.1973,2.5861 5.7049,0.94504 22.164,0.0185 27.872,0.46965 1.7996,0.14222 -0.54542,1.5749 -0.66343,1.7579 -0.57888,0.8976 -27.975,-1.2729 -28.52,-0.32968 -0.18187,0.31447 -6.0753,4.0706 -2.2915,4.8848 7.6219,1.64 27.761,1.21 33.975,1.9904 1.4666,0.18418 -0.26165,1.8469 -0.34143,2.0033 -0.45306,0.88806 -34.402,-2.4372 -34.824,-1.5252 -0.16254,0.35163 -4.4733,3.716 -0.93478,4.5224 8.3734,1.9082 30.402,1.5667 36.822,2.8068 1.3394,0.25875 -0.2468,1.8115 -0.28533,2.108 -0.23187,1.7843 -37.47,-2.2195 -37.674,-1.0864 -0.12883,0.71756 -3.498,6.5885 -1.4901,7.1551 7.5482,2.1301 32.066,-0.40646 39.154,0.31588 1.6085,0.16392 -0.0411,1.6705 -0.12092,1.9991 -0.38467,1.5844 -41.192,-0.52508 -40.182,2.0376 0.0769,0.19492 -1.9857,3.8188 0.40404,5.949 5.5712,4.9661 33.539,-0.33771 40.972,0.14732 1.6382,0.10689 0.0344,1.7423 0.0347,1.9421 0.002,1.0775 -42.38,1.0642 -41.547,1.5345 1.1638,0.65654 -2.0803,5.8756 1.4807,6.1698 9.9256,0.82015 33.319,-1.7911 41.146,-2.0183 2.0061,-0.0582 -0.20426,1.4606 -0.17529,1.6343 0.46899,2.8112 -43.721,2.9382 -41.854,3.7654 0.65645,0.29079 -1.8312,5.5693 1.0714,5.9623 9.3627,1.2679 33.418,-1.6103 40.964,-1.8621 1.8944,-0.0632 -0.83524,1.7141 -0.86612,1.9986 -0.10762,0.9915 -40.4,2.0852 -40.561,3.2585 -1.8394,13.387 -6.5771,37.14 -0.74147,37.774 10.743,-0.8286 37.086,-18.176 41.383,-19.516 2.4472,-0.76375 15.03103,-41.42 16.44403,-42.207 2.7297,-1.5207 -7.786,28.27 -14.85303,43.182 -2.5392,5.3583 -47.953,20.391 -43.694,23.558 2.5126,1.8686 2.5038,19.708 7.2276,17.17 25.229,-13.556 38.999,-24.827 52.13103,-24.619 8.2134,-18.71 27.919,-17.171 16.745,-22.412 -3.9208,-2.3185 -16.62,-40.268 -21.016,-41.448 -4.3545,-6.2551 -13.62903,-16.099 -12.36903,-31.162 0.82552,-9.873 26.23003,-19.197 15.73403,-19.19 z M 61.358313,255.90167 a 3.4459639,6.7884951 0 0 1 -4.73168,1.51004 3.4459639,6.7884951 0 0 1 -0.920122,-9.26725 3.4459639,6.7884951 0 0 1 4.671785,-2.11329 3.4459639,6.7884951 0 0 1 1.224231,9.12969 m -5.239049,-79.86143 c -6.3219,0.68646 -12.32,21.279 -9.1562,32.156 -7.3544,1.203 -30.29,1.5973 -30.844,-16.969 -9.6667996,-31.675 -24.0489996,15.659 -9.9999996,26.375 1.6353,13.563 -11.544,34.713 -2.6875,52.594 4.6934,19.355 9.9747996,53.091 15.3749996,72.156 0.76592,2.7041 -4.3975,6.5771 -3.4062,9.2188 1.1554,3.0791 3.68,7.3077 5.2188,10.281 11.891,8.7845 23.534,7.8063 28.5,-3.4688 3.322,-7.5431 2.864,-28.527 3.6875,-34.594 7.3796,16.98 16.995,33.489 27.062,49.344 12.7,19.98 29.346002,37.406 32.250002,61.594 6.4439,18.696 1.9958,43.683 23.938,53.75 8.2259,29.192 9.2059,60.763 6.8438,91.25 -0.41857,23.303 2.759,47.542 -1.5,71.062 0.65389,0.62406 -19.875,50.719 -18.969,51.188 5.3975,-1.4001 21.801,-45.848 22,-44.719 0.8326,0.10581 13.729,-3.9956 14.75,-3.8125 4.6557,-0.39551 -17.244,72.146 -14.625,68.812 2.6424,-3.3623 25.489,-81.783 22.25,-88.656 2.7229,-27.641 9.8467,-53.974 12.312,-81.688 0.51588,-32.372 7.8509,10.678 9,20.312 4.738,23.74 17.255,43.874 14.75,69.312 -0.33481,5.6365 -10.2,51.879 -9.375,53.812 1.372,3.2143 9.1148,-38.156 11.875,-41.594 0.16933,-0.42838 -0.38459,-3.3768 0.0312,-3.75 2.135,-2.9859 10.66,-5.1975 12.719,-7.5625 1.966,-2.2584 -4.4196,64.048 -4.8125,65.938 7.5236,11.537 7.6447,-88.419 8.7812,-99.094 2.8755,-27.76 -8.3867,-55.363 -6.3125,-84 -3.8251,-14.86 1.0606,-22.064 17.25,-17.156 23.934,6.9729 48.108,6.217 72.75,3.9688 22.234,-4.0423 46.481,-9.3375 65.625,-21.594 29.186,-38.256 38.621,-22.219 47.188,-19.031 10.437,27.277 39.389,40.122 52.531,64.719 13.08,21.134 25.026,47.567 13,72.125 -6.554,18.096 -23.784,71.666 -45.875,96.406 -5.2358,5.8637 -18.851,17.452 -20.781,22.031 0.9553,0.99611 33.3,4.4972 49.937,2.75 -0.2616,-0.0527 0.3561,-1.8391 1.4688,-4.5938 -4.3904,0.0695 -24.988,-1.8777 -45.625,1.625 -4.7292,-2.0255 8.714,-11.202 17.531,-17.906 11.057,-8.4071 30.125,-57.234 31.875,-56.875 8.117,13.835 22.731,10.057 24.594,9.8125 11.974,-31.735 5.1741,30.772 -4.125,42.156 0.6527,8.7507 -12.847,18.416 -12.062,24.938 25.095,3.4834 43.312,-1.9016 38.75,-3.5 -2.7551,-0.96524 -17.352,1.3443 -33.75,2.4375 -1.6287,-7.6083 7.2941,-14.612 12.281,-22.562 5.1063,-6.5752 14.417,17.265 20.635,13.292 2.0792,7.785 0.528,3.2801 3.3215,7.1543 4.5612,-5.1473 0.717,-19.175 0.5516,-26.712 -0.735,-1.0466 1.0836,-2.9598 0.3117,-3.9789 -3.9133,-7.0992 6.8836,0.46401 1.3487,-4.6009 -6.4725,-12.39 1.5943,-40.074 -0.7002,-54.935 9.3799,-28.046 8.0405,-48.082 16.844,-59.562 1.1856,-9.3074 0.1054,-17.643 -8.5937,-22.719 -2.1353,-18.603 4.3633,-39.916 5.7813,-59.094 0.7266,-39.408 17.302,-79.314 4.3124,-118.28 -2.5551,-22.834 -17.902,-40.248 -38.75,-48.469 -25.866,-8.7081 -52.819,-19.264 -80.781,-15.625 -26.731,1.0626 -50.384,15.602 -76.75,19.5 -26.958,6.8529 -55.087,6.7322 -81.75,-1.4062 -20.406,-8.9124 -37.934,-23.036 -61.75,-20 -21.943,-3.8916 -40.14,-17.222 -60.125,-25.719 -22.629,-13.447 -46.205002,-26.166 -64.156002,-46.062 -26.795,-9.355 -7.4344,-29.836 -13.969,-47.594 -2.1898,-10.691 -5.1264,-14.5 -8,-14.188 z m 412.750002,548.88 c 0.432,-0.007 0.7737,-0.0409 0.875,-0.0937 0.026,-0.0134 -0.259,-0.1857 -0.6562,-0.4375 -0.077,0.18898 -0.1462,0.35147 -0.2188,0.53125 z m 0.2188,-0.53125 c 2.0934,-5.1179 7.7942,-23.581 11.842,-32.526 7.9816,-17.638 15.085,-27.245 14.283,-27.442 -0.7376,-0.18178 -8.225,9.2286 -16.013,26.052 -3.4058,7.3571 -8.0775,25.283 -10.237,29.073 -0.7645,1.3417 -15.571,-8.9652 -16.188,-7.9062 -1.3025,2.2358 13.181,10.765 16.313,12.75 z m -340.41,-292 c 5.5409,14.596 14.48,13.85 18.969,12.094 -10.573,10.08 18.187,45.207 26.438,57.844 -1.9292,3.5161 -67.455,-40.298 -45.406,-69.938 z m 71.906,265.84 c 1.2937,2.2633 3.5076,5.5002 4.2188,6.0625 1.1301,0.89364 2.3709,1.6144 3.6562,2.2812 -0.22202,-0.27981 -0.44165,-0.55685 -0.65625,-0.84375 -0.99649,-1.1958 -1.8303,-2.3928 -1.25,-1.6562 0.42694,0.54188 0.83358,1.0996 1.25,1.6562 0.23506,0.28208 0.44888,0.55517 0.6875,0.8125 -0.31407,-0.54761 -0.65005,-1.0362 -0.96875,-1.5312 -1.3017,-1.6673 -2.3753,-3.0683 -3.3125,-4.2188 -0.0326,-0.032 -0.0611,-0.0623 -0.0937,-0.0937 -1.1677,-1.1277 -2.3476,-1.9172 -3.5312,-2.4688 z m -5.5625,0.0312 c -0.0836,0.001 -0.16639,0.0301 -0.25,0.0312 0.60842,0.65847 1.0478,1.1373 1.4062,1.5312 0.0919,0.0262 0.18919,0.0634 0.28125,0.0937 -0.47698,-0.55627 -0.94259,-1.1172 -1.4375,-1.6562 z m -2.0938,0.0312 c -5.1632,2.4477 -9.7552,9.5244 -12.594,18.906 4.2994,2.7639 55.36,3.5233 29.938,-7.1875 -0.44908,-0.96507 -0.91363,-1.8416 -1.375,-2.6875 -1.5217,-0.37003 -3.0405,-0.75631 -4.5625,-1.125 0.11301,0.12583 0.19926,0.27867 0.3125,0.40625 0.0372,0.0323 0.0584,0.0315 0.0937,0.0625 1.3256,1.1591 1.4212,1.3672 0.90625,1.0625 2.4271,2.8072 4.9215,5.891 7.4688,8.4375 -2.3576,-1.9145 -39.511,6.4406 -27.875,-5.4375 3.433,-9.1261 6.9082,-11.757 10.5,-11 -0.47713,-0.45951 -0.93476,-0.93366 -1.375,-1.4375 -0.14601,0.002 -0.29155,-10e-4 -0.4375,0 -0.33306,2.9e-4 -0.66694,-1.7e-4 -1,0 z m -70.906,0.4375 c -0.0579,-0.007 -0.13314,0.0132 -0.21875,0.0312 -3.6983,0.77837 -32.866002,24.098 -16.688,27.969 5.2303,1.324 10.667,0.83757 16,1 44.361,-4.1094 -39.042002,4.8235 -13.406,-13.5 7.391,-21.359 31.225,3.1067 32.906,9.0938 6.2662,1.5278 1.0682,-4.6666 -6.5938,-11.594 -1.4092,-0.7845 -2.6442,-1.8047 -3.75,-3.2812 -0.0223,-0.019 -0.0402,-0.0435 -0.0625,-0.0625 -3.1493,-2.6751 -6.4582,-5.2969 -9.4062,-7.4688 1.324,-1.4587 1.624,-2.1401 1.2188,-2.1875 z" />
  <metadata
     id="metadata56">
    <rdf:RDF>
      <cc:Work>
        <dc:format>image/svg+xml</dc:format>
        <dc:type
           rdf:resource="http://purl.org/dc/dcmitype/StillImage" />
        <cc:license
           rdf:resource="http://creativecommons.org/publicdomain/zero/1.0/" />
        <dc:publisher>
          <cc:Agent
             rdf:about="http://openclipart.org/">
            <dc:title>Openclipart</dc:title>
          </cc:Agent>
        </dc:publisher>
        <dc:title>Quality Street 1</dc:title>
        <dc:date>2013-05-09T11:30:49</dc:date>
        <dc:description>My impression of fictional character, Corporal Spicer from &quot;Quality Street&quot; (1918) by James M. Barrie (d. 1937). The script describes him as a tactless laddish man, unlucky in love, who becomes a general and destroys himself with drink. Pictured wearing the uniform of a fictional unit of Cornish light hussar from the 1816 war. The story easily modifies to international settings and other conflicts. Delightfully illustrated copies of the script are public domain in some jurisdictions.</dc:description>
        <dc:source>https://openclipart.org/detail/177918/quality-street-1-by-bedpanner-177918</dc:source>
        <dc:creator>
          <cc:Agent>
            <dc:title>bedpanner</dc:title>
          </cc:Agent>
        </dc:creator>
        <dc:subject>
          <rdf:Bag>
            <rdf:li>amateur</rdf:li>
            <rdf:li>cavalry</rdf:li>
            <rdf:li>community</rdf:li>
            <rdf:li>hussar</rdf:li>
            <rdf:li>napoleonic</rdf:li>
            <rdf:li>regency</rdf:li>
            <rdf:li>theatre</rdf:li>
            <rdf:li>uniform</rdf:li>
          </rdf:Bag>
        </dc:subject>
      </cc:Work>
      <cc:License
         rdf:about="http://creativecommons.org/publicdomain/zero/1.0/">
        <cc:permits
           rdf:resource="http://creativecommons.org/ns#Reproduction" />
        <cc:permits
           rdf:resource="http://creativecommons.org/ns#Distribution" />
        <cc:permits
           rdf:resource="http://creativecommons.org/ns#DerivativeWorks" />
      </cc:License>
    </rdf:RDF>
  </metadata>
</svg>
